<svg width="512" height="512" viewBox="0 0 512 512" fill="none" xmlns="http://www.w3.org/2000/svg">
<path fill-rule="evenodd" clip-rule="evenodd" d="M327.357 168.434L352.679 153.841C366.971 145.605 385.246 150.493 393.497 164.758C396.12 169.292 397.5 174.435 397.5 179.67V205.382C397.5 221.438 388.919 236.274 374.988 244.302L315.185 278.765C302.301 286.19 296.617 301.777 301.705 315.732C306.988 330.218 320.783 339.86 336.228 339.86L379.49 339.861C389.437 339.861 397.5 347.909 397.5 357.837V428.568C397.5 438.497 389.437 446.545 379.49 446.545H350.954C322.978 446.545 297.958 429.164 288.239 402.979L279.708 379.995C268.195 348.975 233.669 333.144 202.59 344.635C199.422 345.807 196.358 347.243 193.432 348.93L161.322 367.434C147.03 375.67 128.755 370.782 120.504 356.517C117.881 351.983 116.5 346.84 116.5 341.604V315.892C116.5 299.836 125.082 285 139.013 276.972L197.637 243.188C212.812 234.442 219.507 216.084 213.513 199.648C207.291 182.586 191.042 171.23 172.85 171.23L134.511 171.23C124.682 171.231 116.693 163.373 116.504 153.608L116.5 153.254V82.5214C116.5 72.5933 124.564 64.5449 134.511 64.5449H162.729C190.523 64.5449 215.387 81.7907 225.079 107.791L235.367 135.386C247.694 168.455 284.545 185.287 317.675 172.982C321.024 171.738 324.262 170.217 327.357 168.434Z" fill="black"></path>
</svg>
